#N canvas 312 180 450 300 10;
#X obj 45 27 r trigger;
#X floatatom 269 83 5 0 0 0 - - -, f 5;
#X obj 270 136 osc~ 220;
#X obj 46 61 bng 15 250 50 0 empty empty empty 17 7 0 10 -262144 -1
-1;
#X obj 50 138 vline~;
#X obj 85 188 *~;
#X obj 151 251 dac~;
#X obj 264 28 r midinote;
#X msg 47 93 1 10;
#X connect 0 0 3 0;
#X connect 1 0 2 0;
#X connect 2 0 5 1;
#X connect 3 0 8 0;
#X connect 4 0 5 0;
#X connect 5 0 6 0;
#X connect 5 0 6 1;
#X connect 7 0 1 0;
#X connect 8 0 4 0;
