#N canvas 695 203 499 462 10;
#X obj 145 407 dac~;
#X obj 328 105 r \$0-pitch;
#X obj 146 362 *~;
#X floatatom 327 149 5 0 0 0 - - -;
#X obj 137 206 cos~;
#X obj 344 195 osc~ 220;
#X obj 140 274 *~ 1;
#X connect 1 0 3 0;
#X connect 2 0 0 0;
#X connect 2 0 0 1;
#X connect 3 0 5 0;
#X connect 4 0 6 0;
#X connect 5 0 2 1;
#X connect 6 0 2 0;
