#N canvas 538 231 499 462 10;
#X obj 145 407 dac~;
#X obj 327 104 r \$0-pitch;
#X obj 93 275 line~;
#X obj 93 298 cos~;
#X obj 146 362 *~;
#X obj 93 321 *~ 0.1;
#X obj 335 305 *~;
#X obj 356 336 *~;
#X obj 319 336 *~;
#X floatatom 326 138 5 0 0 0 - - -;
#X obj 344 228 osc~ 220;
#X msg 95 168 1 10 \, 0 1000 10;
#X connect 1 0 9 0;
#X connect 2 0 3 0;
#X connect 3 0 5 0;
#X connect 4 0 0 0;
#X connect 4 0 0 1;
#X connect 5 0 4 0;
#X connect 6 0 7 1;
#X connect 6 0 4 1;
#X connect 6 0 8 0;
#X connect 6 0 8 1;
#X connect 7 0 4 1;
#X connect 8 0 4 1;
#X connect 9 0 10 0;
#X connect 10 0 4 1;
#X connect 10 0 6 0;
#X connect 10 0 6 1;
#X connect 10 0 7 0;
#X connect 11 0 2 0;
